<svg width="48" height="48" viewBox="0 0 48 48" fill="none" xmlns="http://www.w3.org/2000/svg">
<rect width="48" height="48" rx="7" fill="white"/>
<path d="M23.8257 25.2451C22.7819 26.6005 22.207 28.2706 22.207 30C22.207 31.9648 22.9491 33.8532 24.278 35.2904H13.938C13.6834 35.2904 13.4312 35.2402 13.196 35.1427C12.9608 35.0452 12.7471 34.9024 12.5671 34.7222C12.3871 34.5421 12.2444 34.3283 12.1471 34.093C12.0498 33.8577 11.9998 33.6055 12 33.3509V29.2859C12 28.6079 12.375 27.9839 12.975 27.6659C16.3132 25.8916 20.0634 25.0593 23.8257 25.2451Z" fill="#48C1C0"/>
<path fill-rule="evenodd" clip-rule="evenodd" d="M30.0273 25.839C29.4756 25.8285 28.9272 25.9281 28.4144 26.132C27.9015 26.336 27.4345 26.6401 27.0406 27.0266C26.6466 27.4131 26.3337 27.8743 26.1201 28.3831C25.9065 28.892 25.7964 29.4384 25.7964 29.9903C25.7964 30.5421 25.9065 31.0885 26.1201 31.5974C26.3337 32.1062 26.6466 32.5674 27.0406 32.9539C27.4345 33.3404 27.9015 33.6446 28.4144 33.8485C28.9272 34.0524 29.4756 34.152 30.0273 34.1415C31.1147 34.1208 32.1505 33.6744 32.9121 32.8981C33.6738 32.1219 34.1004 31.0778 34.1004 29.9903C34.1004 28.9027 33.6738 27.8586 32.9121 27.0824C32.1505 26.3061 31.1147 25.8597 30.0273 25.839ZM24.2148 29.9895C24.2148 28.4479 24.8272 26.9695 25.9173 25.8794C27.0073 24.7894 28.4858 24.177 30.0273 24.177C31.5689 24.177 33.0473 24.7894 34.1374 25.8794C35.2275 26.9695 35.8398 28.4479 35.8398 29.9895C35.8398 31.5311 35.2275 33.0095 34.1374 34.0996C33.0473 35.1896 31.5689 35.802 30.0273 35.802C28.4858 35.802 27.0073 35.1896 25.9173 34.0996C24.8272 33.0095 24.2148 31.5311 24.2148 29.9895Z" fill="#48C1C0"/>
<path fill-rule="evenodd" clip-rule="evenodd" d="M29.9176 27.933L26.5756 26.91L27.0616 25.3215L30.4036 26.3445C31.9186 26.8095 32.2666 28.7955 30.9991 29.7465L30.7051 29.967C30.4989 30.122 30.2638 30.2341 30.0136 30.297L28.7896 30.6015C28.7599 30.6091 28.7324 30.6237 28.7094 30.6441C28.6865 30.6645 28.6688 30.69 28.6577 30.7187C28.6467 30.7473 28.6427 30.7782 28.6461 30.8087C28.6495 30.8392 28.6601 30.8685 28.6771 30.894L28.9321 31.275C29.0829 31.5008 29.1844 31.7558 29.2303 32.0234C29.2761 32.291 29.2651 32.5653 29.198 32.8284C29.131 33.0915 29.0094 33.3375 28.8411 33.5506C28.6728 33.7636 28.4616 33.9389 28.2211 34.065L27.2041 34.599L26.4316 33.129L27.4486 32.595C27.483 32.577 27.5132 32.5519 27.5373 32.5214C27.5613 32.4909 27.5786 32.4557 27.5881 32.418C27.5976 32.3803 27.599 32.3411 27.5923 32.3029C27.5856 32.2646 27.5709 32.2282 27.5491 32.196L27.2941 31.815C27.1295 31.568 27.0267 31.2851 26.9942 30.9901C26.9618 30.695 27.0008 30.3965 27.1078 30.1196C27.2148 29.8428 27.3868 29.5957 27.6093 29.3992C27.8318 29.2027 28.0982 29.0626 28.3861 28.9905L29.6101 28.686C29.646 28.6768 29.6797 28.6604 29.7091 28.638L30.0016 28.419C30.0423 28.3883 30.0736 28.347 30.0924 28.2996C30.1111 28.2522 30.1164 28.2006 30.1077 28.1504C30.099 28.1003 30.0767 28.0534 30.0432 28.0151C30.0097 27.9767 29.9662 27.9483 29.9176 27.933ZM33.4396 30.708L35.4226 30.3075L35.0926 28.68L33.1111 29.079C32.5771 29.187 32.1121 29.514 31.8316 29.982L31.0381 31.305C30.9008 31.534 30.8123 31.7888 30.7781 32.0536C30.7439 32.3184 30.7648 32.5873 30.8395 32.8436C30.9141 33.1 31.0409 33.3381 31.2119 33.5431C31.3829 33.7481 31.5944 33.9156 31.8331 34.035L32.9776 34.608L33.7201 33.123L32.5756 32.55C32.5416 32.5329 32.5114 32.509 32.487 32.4797C32.4625 32.4504 32.4444 32.4164 32.4337 32.3799C32.423 32.3433 32.42 32.3049 32.4248 32.267C32.4296 32.2292 32.4421 32.1928 32.4616 32.16L33.2566 30.837C33.2764 30.8039 33.303 30.7754 33.3345 30.7531C33.366 30.7309 33.4018 30.7156 33.4396 30.708Z" fill="#48C1C0"/>
<path fill-rule="evenodd" clip-rule="evenodd" d="M23.4727 12C22.7093 12 21.9535 12.1503 21.2483 12.4425C20.5431 12.7346 19.9023 13.1627 19.3626 13.7024C18.8229 14.2422 18.3947 14.8829 18.1026 15.5882C17.8105 16.2934 17.6602 17.0492 17.6602 17.8125C17.6602 18.5758 17.8105 19.3316 18.1026 20.0368C18.3947 20.7421 18.8229 21.3828 19.3626 21.9226C19.9023 22.4623 20.5431 22.8904 21.2483 23.1826C21.9535 23.4747 22.7093 23.625 23.4727 23.625C25.0142 23.625 26.4927 23.0126 27.5827 21.9226C28.6728 20.8325 29.2852 19.3541 29.2852 17.8125C29.2852 16.2709 28.6728 14.7925 27.5827 13.7024C26.4927 12.6124 25.0142 12 23.4727 12Z" fill="#48C1C0"/>
</svg>
