<svg xmlns="http://www.w3.org/2000/svg" width="48" height="48" viewBox="0 0 48 48" fill="none">
  <rect width="48" height="48" rx="5" fill="#F4F6F8"/>
  <path d="M36.1634 31.6119L37.4358 28.5407C37.4836 28.4253 37.5052 28.3008 37.4991 28.1761C37.493 28.0513 37.4592 27.9295 37.4003 27.8194C37.3414 27.7093 37.2587 27.6137 37.1584 27.5394C37.058 27.4651 36.9424 27.414 36.8199 27.3898L32.9994 26.6355V24.5497C32.9993 24.3531 32.9307 24.1626 32.8054 24.011C32.68 23.8595 32.5057 23.7564 32.3126 23.7195L29.7273 23.2301L30.3162 26.7621C30.3774 27.1265 30.3346 27.5008 30.1929 27.8421C30.0512 28.1834 29.8162 28.4778 29.5149 28.6918C29.2136 28.9057 28.8582 29.0305 28.4893 29.0519C28.1203 29.0732 27.7529 28.9902 27.4289 28.8124L24.0269 26.9477L20.6401 28.8343C20.3174 29.0128 19.9512 29.0975 19.5829 29.0787C19.2146 29.0599 18.8589 28.9384 18.5561 28.728C18.2536 28.5155 18.0167 28.2224 17.8723 27.8821C17.728 27.5417 17.6819 27.1678 17.7393 26.8026L18.3114 23.2217L15.6822 23.733C15.4898 23.7702 15.3164 23.8733 15.1917 24.0245C15.067 24.1757 14.9988 24.3656 14.9988 24.5616V26.6355L11.1783 27.3898C11.0558 27.414 10.9402 27.4651 10.8398 27.5394C10.7394 27.6137 10.6568 27.7093 10.5979 27.8194C10.539 27.9295 10.5052 28.0513 10.4991 28.1761C10.4929 28.3008 10.5145 28.4253 10.5624 28.5407L11.8347 31.6119L10.5657 34.6275C10.5065 34.7682 10.4866 34.9224 10.5081 35.0736C10.5296 35.2248 10.5917 35.3673 10.6879 35.4859C10.784 35.6046 10.9105 35.6949 11.0539 35.7473C11.1974 35.7997 11.3523 35.8122 11.5023 35.7834C11.5361 35.7767 14.9414 35.1236 15.9438 34.9954C16.9698 34.8705 17.8692 34.7929 18.6961 34.7524C18.9125 34.742 19.1166 34.6487 19.2661 34.492C19.4157 34.3352 19.4992 34.1269 19.4994 33.9103V31.7689C19.8892 31.7031 20.2267 31.6491 20.4477 31.6204C23.762 31.2086 24.2277 31.2103 27.5589 31.644C27.7782 31.6693 28.1141 31.7216 28.5005 31.7841V33.9103C28.5007 34.1269 28.5842 34.3352 28.7337 34.492C28.8832 34.6487 29.0874 34.742 29.3037 34.7524C30.1306 34.7912 31.0301 34.8705 32.0493 34.9937C33.0584 35.1236 36.4638 35.7767 36.4976 35.7834C36.6476 35.8128 36.8029 35.8007 36.9466 35.7485C37.0904 35.6963 37.2172 35.606 37.3135 35.4871C37.4098 35.3683 37.4719 35.2255 37.4931 35.0741C37.5144 34.9226 37.494 34.7682 37.4341 34.6275L36.1634 31.6119Z" fill="#48C1C0"/>
  <path d="M31.8302 18.1221C31.7804 17.975 31.6912 17.8444 31.5721 17.7447C31.453 17.6449 31.3088 17.5799 31.1552 17.5568L26.739 16.8987L24.7444 12.6901C24.6757 12.5459 24.5676 12.4241 24.4326 12.3387C24.2977 12.2533 24.1413 12.2078 23.9816 12.2074C23.6677 12.1568 23.3556 12.3981 23.2172 12.6951L21.2496 16.9189L16.8384 17.6074C16.6844 17.6302 16.5396 17.6954 16.4205 17.7957C16.3013 17.8959 16.2123 18.0274 16.1635 18.1753C16.1146 18.3232 16.1079 18.4817 16.1439 18.6333C16.18 18.7848 16.2574 18.9233 16.3676 19.0334L19.5958 22.3156L18.8499 26.9798C18.8245 27.1362 18.8438 27.2967 18.9055 27.4427C18.9672 27.5886 19.0689 27.7142 19.1988 27.805C19.3287 27.8958 19.4816 27.9481 19.6399 27.9558C19.7982 27.9636 19.9555 27.9265 20.0936 27.8489L24.0238 25.6602L27.9692 27.8219C28.1082 27.8969 28.2655 27.9315 28.4232 27.9218C28.5809 27.9121 28.7328 27.8585 28.8616 27.767C28.9904 27.6756 29.0911 27.5499 29.1523 27.4043C29.2135 27.2586 29.2327 27.0987 29.2078 26.9427L28.4299 22.2818L31.6361 18.9777C31.7448 18.8672 31.8205 18.7286 31.8548 18.5775C31.8891 18.4264 31.8806 18.2687 31.8302 18.1221Z" fill="#48C1C0"/>
</svg>