<svg xmlns="http://www.w3.org/2000/svg" width="32" height="32" viewBox="0 0 32 32" fill="none">
  <rect width="32" height="32" rx="8" fill="#F4F6F8"/>
  <path d="M11 11.7548V19.9202C11 21.0918 11 21.6781 11.17 22.0362C11.3238 22.3603 11.5723 22.6262 11.8803 22.7964C12.1883 22.9666 12.5404 23.0326 12.8867 22.9849C13.27 22.9333 13.7417 22.6078 14.685 21.9579L14.6875 21.9562C15.0617 21.6979 15.2483 21.5696 15.4442 21.4982C15.8036 21.367 16.1956 21.367 16.555 21.4982C16.7508 21.5696 16.9383 21.6988 17.3142 21.9579C18.2583 22.6078 18.7308 22.9324 19.1142 22.9849C19.4603 23.0324 19.8122 22.9664 20.12 22.7961C20.4279 22.6259 20.6763 22.3601 20.83 22.0362C21 21.6781 21 21.0918 21 19.9202V11.7522C21 10.7898 21 10.3077 20.8183 9.94007C20.6583 9.61603 20.403 9.35264 20.0892 9.18767C19.7333 9 19.2667 9 18.3333 9H13.6667C12.7333 9 12.2667 9 11.91 9.18767C11.5964 9.35269 11.3414 9.61609 11.1817 9.94007C11 10.3085 11 10.7906 11 11.7548Z" stroke="#48C1C0" stroke-width="2" stroke-linecap="round" stroke-linejoin="round"/>
</svg>