<svg xmlns="http://www.w3.org/2000/svg" width="64" height="64" viewBox="0 0 64 64" fill="none">
  <g clip-path="url(#clip0_383_15994)">
    <path d="M32 0C14.3269 0 0 14.3269 0 32C0 49.6731 14.3269 64 32 64C49.6731 64 64 49.6731 64 32C64 14.3269 49.6731 0 32 0ZM29.5508 15.0625L30.9258 21.3946C26.8969 22.2864 23.1922 23.4462 23.4922 27.9453H28.2266V44.797H13.9649V29.0469C13.9699 16.53 23.1596 15.5116 29.5508 15.0625ZM48.6563 15.0625L50.0351 21.3946C46.0063 22.2864 42.3015 23.4462 42.6015 27.9453H47.3359V44.797H33.0742V29.0469C33.0793 16.53 42.2651 15.5116 48.6563 15.0625Z" fill="white"/>
  </g>
  <defs>
    <clipPath id="clip0_383_15994">
      <rect width="64" height="64" fill="white"/>
    </clipPath>
  </defs>
</svg>