<svg width="42" height="42" viewBox="0 0 42 42" fill="none" xmlns="http://www.w3.org/2000/svg">
<g clip-path="url(#clip0_383_20137)">
<path d="M34.125 42H7.875C5.78642 42 3.78338 41.1703 2.30653 39.6935C0.829685 38.2166 0 36.2136 0 34.125L0 7.875C0 5.78642 0.829685 3.78338 2.30653 2.30653C3.78338 0.829685 5.78642 0 7.875 0L34.125 0C36.2136 0 38.2166 0.829685 39.6935 2.30653C41.1703 3.78338 42 5.78642 42 7.875V34.125C42 36.2136 41.1703 38.2166 39.6935 39.6935C38.2166 41.1703 36.2136 42 34.125 42Z" fill="white"/>
<path d="M30.4871 21.5132C30.4138 21.352 30.3758 21.177 30.3758 21C30.3758 20.8229 30.4138 20.6479 30.4871 20.4868L31.2693 18.7648C31.4131 18.4462 31.4901 18.1015 31.4955 17.752C31.5009 17.4024 31.4347 17.0555 31.3009 16.7326C31.1671 16.4096 30.9686 16.1175 30.7175 15.8743C30.4665 15.631 30.1683 15.4418 29.8413 15.3182L28.0695 14.6527C27.9036 14.5907 27.753 14.4938 27.6278 14.3686C27.5026 14.2434 27.4057 14.0928 27.3437 13.9269L26.6782 12.1564C26.5549 11.8291 26.3659 11.5307 26.1227 11.2794C25.8795 11.0282 25.5873 10.8295 25.2643 10.6957C24.9412 10.5618 24.5942 10.4957 24.2445 10.5013C23.8949 10.5069 23.5502 10.5842 23.2316 10.7284L21.5083 11.5106C21.347 11.5836 21.1721 11.6214 20.9951 11.6214C20.8181 11.6214 20.6431 11.5836 20.4819 11.5106L18.7599 10.7284C18.4413 10.5846 18.0966 10.5076 17.7471 10.5022C17.3976 10.4968 17.0506 10.563 16.7277 10.6968C16.4048 10.8306 16.1127 11.0291 15.8694 11.2802C15.6261 11.5312 15.4369 11.8294 15.3133 12.1564L14.6478 13.9282C14.5858 14.0941 14.4889 14.2447 14.3637 14.3699C14.2385 14.4951 14.0879 14.592 13.922 14.654L12.1515 15.3195C11.8243 15.4428 11.5258 15.6318 11.2746 15.875C11.0233 16.1182 10.8246 16.4104 10.6908 16.7334C10.557 17.0565 10.4908 17.4035 10.4964 17.7532C10.502 18.1028 10.5793 18.4475 10.7235 18.7661L11.5057 20.4894C11.5791 20.6506 11.617 20.8256 11.617 21.0026C11.617 21.1797 11.5791 21.3546 11.5057 21.5158L10.7235 23.2378C10.5797 23.5564 10.5027 23.9011 10.4973 24.2506C10.4919 24.6001 10.5581 24.9471 10.6919 25.27C10.8257 25.5929 11.0243 25.885 11.2753 26.1283C11.5263 26.3716 11.8245 26.5608 12.1515 26.6844L13.9233 27.3499C14.0892 27.4119 14.2398 27.5088 14.365 27.634C14.4903 27.7592 14.5871 27.9098 14.6492 28.0757L15.3146 29.8462C15.438 30.1733 15.6272 30.4716 15.8704 30.7227C16.1137 30.9738 16.4059 31.1724 16.7289 31.3061C17.0519 31.4398 17.3989 31.5058 17.7485 31.5001C18.0981 31.4944 18.4427 31.4171 18.7612 31.2729L20.4845 30.4907C20.6457 30.4173 20.8207 30.3794 20.9977 30.3794C21.1748 30.3794 21.3498 30.4173 21.5109 30.4907L23.2329 31.2729C23.5515 31.4167 23.8962 31.4936 24.2457 31.4991C24.5953 31.5045 24.9422 31.4383 25.2651 31.3045C25.588 31.1707 25.8802 30.9721 26.1234 30.7211C26.3667 30.4701 26.5559 30.1719 26.6795 29.8449L27.345 28.073C27.407 27.9072 27.5039 27.7566 27.6291 27.6313C27.7543 27.5061 27.9049 27.4092 28.0708 27.3472L29.8413 26.6818C30.1686 26.5585 30.467 26.3694 30.7183 26.1262C30.9695 25.883 31.1682 25.5909 31.302 25.2678C31.4359 24.9448 31.502 24.5977 31.4964 24.2481C31.4908 23.8985 31.4135 23.5537 31.2693 23.2352L30.4871 21.5132ZM22.784 25.2787C22.784 25.8129 22.347 26.25 21.8036 26.25H20.1932C19.7207 26.25 19.2127 25.8995 19.2127 25.1212V24.6487H22.7827V25.2787H22.784ZM23.4928 22.6892C23.1253 22.9871 22.889 23.3717 22.8103 23.7746H19.197C19.1353 23.3809 18.9174 23.0134 18.5578 22.7338C18.0792 22.3626 17.6944 21.8841 17.4345 21.337C17.1746 20.7899 17.0469 20.1893 17.0615 19.5838C17.1048 17.5009 18.8465 15.7775 20.9373 15.7513C21.4623 15.7396 21.9841 15.8343 22.4714 16.0299C22.9586 16.2255 23.4012 16.5178 23.7723 16.8892C24.5257 17.6229 24.9365 18.6112 24.9365 19.6612C24.9365 20.8425 24.4115 21.945 23.4928 22.6892Z" fill="#2B8CD9"/>
</g>
<defs>
<clipPath id="clip0_383_20137">
<rect width="42" height="42" fill="white"/>
</clipPath>
</defs>
</svg>
