<svg width="42" height="42" viewBox="0 0 42 42" fill="none" xmlns="http://www.w3.org/2000/svg">
<g clip-path="url(#clip0_383_20121)">
<path d="M34.125 42H7.875C5.78642 42 3.78338 41.1703 2.30653 39.6935C0.829685 38.2166 0 36.2136 0 34.125L0 7.875C0 5.78642 0.829685 3.78338 2.30653 2.30653C3.78338 0.829685 5.78642 0 7.875 0L34.125 0C36.2136 0 38.2166 0.829685 39.6935 2.30653C41.1703 3.78338 42 5.78642 42 7.875V34.125C42 36.2136 41.1703 38.2166 39.6935 39.6935C38.2166 41.1703 36.2136 42 34.125 42Z" fill="white"/>
<path d="M23.0271 18.375C22.8954 18.375 22.7669 18.3352 22.6582 18.2608L20.9992 17.1321L19.3402 18.2608C19.2301 18.3359 19.0997 18.3757 18.9663 18.3748C18.833 18.3739 18.7031 18.3324 18.594 18.2559C18.4848 18.1794 18.4015 18.0714 18.3552 17.9464C18.309 17.8214 18.3019 17.6852 18.3349 17.556L18.8572 15.498L17.2914 14.1606C17.1922 14.0753 17.1207 13.9623 17.086 13.8361C17.0513 13.71 17.0551 13.5763 17.0968 13.4523C17.1385 13.3283 17.2163 13.2195 17.3202 13.1399C17.4241 13.0603 17.5493 13.0136 17.6799 13.0056L19.6618 12.894L20.3824 10.9292C20.4299 10.8041 20.5143 10.6965 20.6244 10.6206C20.7346 10.5447 20.8653 10.5041 20.999 10.5042C21.1328 10.5044 21.2634 10.5452 21.3734 10.6214C21.4834 10.6975 21.5676 10.8054 21.6148 10.9305L22.3354 12.8953L24.3172 13.0069C24.4482 13.0143 24.5739 13.0607 24.6782 13.1402C24.7825 13.2197 24.8606 13.3286 24.9024 13.4529C24.9443 13.5772 24.9479 13.7112 24.9128 13.8376C24.8777 13.9639 24.8056 14.0769 24.7057 14.1619L23.1399 15.4993L23.6623 17.5573C23.6866 17.6541 23.6886 17.7551 23.668 17.8528C23.6475 17.9504 23.605 18.0421 23.5438 18.1209C23.4826 18.1997 23.4043 18.2635 23.3147 18.3075C23.2252 18.3516 23.1268 18.3746 23.0271 18.375Z" fill="#81C4FA"/>
<path d="M30.8438 27.1254H26.6871V30.8438C26.6871 31.0708 26.6438 31.2992 26.5729 31.5H30.8438C31.2021 31.5 31.5 31.2021 31.5 30.8438V27.7817C31.5 27.4221 31.2021 27.1254 30.8438 27.1254ZM15.3129 25.3746H11.1562C10.7979 25.3746 10.5 25.6725 10.5 26.0308V30.8438C10.5 31.2021 10.7979 31.5 11.1562 31.5H15.4258C15.352 31.289 15.3134 31.0673 15.3116 30.8438L15.3129 25.3746ZM24.7183 20.1246H17.2804C17.1063 20.1246 16.9394 20.1937 16.8163 20.3168C16.6933 20.4399 16.6241 20.6068 16.6241 20.7808V30.8438C16.6241 31.0178 16.6933 31.1847 16.8163 31.3078C16.9394 31.4309 17.1063 31.5 17.2804 31.5H24.7183C24.8924 31.5 25.0593 31.4309 25.1824 31.3078C25.3054 31.1847 25.3746 31.0178 25.3746 30.8438V20.7808C25.3746 20.6068 25.3054 20.4399 25.1824 20.3168C25.0593 20.1937 24.8924 20.1246 24.7183 20.1246ZM21.6562 27.3433C21.6562 27.5174 21.5871 27.6843 21.464 27.8074C21.341 27.9304 21.174 27.9996 21 27.9996C20.826 27.9996 20.659 27.9304 20.536 27.8074C20.4129 27.6843 20.3438 27.5174 20.3438 27.3433V24.7695C20.245 24.6809 20.1755 24.5644 20.1444 24.4354C20.1132 24.3065 20.1218 24.1711 20.1692 24.0471C20.2165 23.9232 20.3003 23.8165 20.4095 23.7412C20.5187 23.6658 20.6481 23.6253 20.7808 23.625H21C21.174 23.625 21.341 23.6941 21.464 23.8172C21.5871 23.9403 21.6562 24.1072 21.6562 24.2813V27.3433Z" fill="#2B8CD9"/>
</g>
<defs>
<clipPath id="clip0_383_20121">
<rect width="42" height="42" fill="white"/>
</clipPath>
</defs>
</svg>
