<svg width="42" height="42" viewBox="0 0 42 42" fill="none" xmlns="http://www.w3.org/2000/svg">
<g clip-path="url(#clip0_383_20100)">
<path d="M34.125 42H7.875C5.78642 42 3.78338 41.1703 2.30653 39.6935C0.829685 38.2166 0 36.2136 0 34.125L0 7.875C0 5.78642 0.829685 3.78338 2.30653 2.30653C3.78338 0.829685 5.78642 0 7.875 0L34.125 0C36.2136 0 38.2166 0.829685 39.6935 2.30653C41.1703 3.78338 42 5.78642 42 7.875V34.125C42 36.2136 41.1703 38.2166 39.6935 39.6935C38.2166 41.1703 36.2136 42 34.125 42Z" fill="white"/>
<path d="M25.1437 17.01L24.1816 17.9721C24.3391 18.2779 24.4795 18.5929 24.5845 18.9171C24.9783 18.8475 25.3891 18.8121 25.8091 18.8121H25.9233C25.7416 18.1805 25.4796 17.5749 25.1437 17.01ZM10.4883 21C10.4901 22.1283 10.7339 23.243 11.2033 24.269C11.6727 25.295 12.3568 26.2083 13.2094 26.9473C14.062 27.6863 15.0632 28.2337 16.1454 28.5527C17.2277 28.8717 18.3658 28.9547 19.4828 28.7963C19.2865 28.3897 19.1313 27.9645 19.0195 27.5271C18.1073 27.6183 17.186 27.5175 16.3151 27.2311C15.4442 26.9448 14.6429 26.4791 13.9628 25.8642C13.2828 25.2494 12.7391 24.4989 12.3667 23.6611C11.9943 22.8233 11.8015 21.9168 11.8008 21C11.8008 17.3775 14.7408 14.4375 18.3633 14.4375C19.4566 14.4375 20.4895 14.7092 21.3991 15.1896L22.3612 14.2275C21.153 13.5046 19.7712 13.1235 18.3633 13.125C14.0228 13.125 10.4883 16.6596 10.4883 21Z" fill="#81C4FA"/>
<path d="M13.5508 21C13.5532 22.2758 14.0611 23.4985 14.9631 24.4006C15.8652 25.3027 17.088 25.8106 18.3637 25.813C18.512 25.813 18.6617 25.8038 18.81 25.7867C18.81 25.3313 18.8533 24.885 18.9412 24.448C18.7575 24.4834 18.5645 24.5005 18.3637 24.5005C17.4353 24.5005 16.545 24.1317 15.8885 23.4752C15.2321 22.8188 14.8633 21.9284 14.8633 21C14.8633 20.0717 15.2321 19.1813 15.8885 18.5249C16.545 17.8684 17.4353 17.4996 18.3637 17.4996C18.5908 17.4996 18.81 17.5167 19.02 17.5692L20.0792 16.51C19.5328 16.2951 18.9508 16.1852 18.3637 16.1858C17.0879 16.1886 15.8651 16.6967 14.9631 17.599C14.061 18.5013 13.5532 19.7242 13.5508 21Z" fill="#81C4FA"/>
<path d="M18.3628 19.2505C17.4008 19.2505 16.6133 20.038 16.6133 21.0001C16.6133 21.9621 17.4008 22.7496 18.3628 22.7496C19.3249 22.7496 20.1124 21.9621 20.1124 21.0001C20.1124 20.038 19.3249 19.2505 18.3628 19.2505ZM18.3628 21.4371C18.1174 21.4371 17.9258 21.2442 17.9258 21.0001C17.9258 20.7559 18.1187 20.563 18.3628 20.563C18.6083 20.563 18.7999 20.7559 18.7999 21.0001C18.7999 21.2442 18.607 21.4371 18.3628 21.4371Z" fill="#81C4FA"/>
<path d="M18.371 21.6562C18.2413 21.6562 18.1145 21.6178 18.0066 21.5457C17.8988 21.4737 17.8147 21.3713 17.765 21.2515C17.7153 21.1318 17.7022 20.9999 17.7273 20.8727C17.7525 20.7455 17.8148 20.6285 17.9063 20.5367L23.5934 14.8496C23.7172 14.7301 23.8829 14.6639 24.055 14.6654C24.2271 14.6669 24.3917 14.7359 24.5133 14.8576C24.635 14.9793 24.704 15.1439 24.7055 15.316C24.707 15.488 24.6409 15.6538 24.5213 15.7776L18.8343 21.4646C18.7735 21.5255 18.7012 21.5737 18.6217 21.6066C18.5422 21.6395 18.457 21.6564 18.371 21.6562Z" fill="#2B8CD9"/>
<path d="M26.4683 15.75H24.2804C24.1063 15.75 23.9394 15.6809 23.8163 15.5578C23.6933 15.4347 23.6241 15.2678 23.6241 15.0938V12.9058C23.6241 12.7326 23.6937 12.5646 23.8157 12.4412L25.5653 10.6916C25.6568 10.599 25.7739 10.5357 25.9016 10.5099C26.0293 10.4841 26.1617 10.497 26.2821 10.5469C26.4024 10.5967 26.5051 10.6814 26.5771 10.7899C26.6491 10.8985 26.6871 11.026 26.6862 11.1563V12.6879H28.2179C28.3476 12.6883 28.4742 12.7271 28.582 12.7993C28.6897 12.8715 28.7737 12.9739 28.8233 13.0937C28.873 13.2135 28.8861 13.3453 28.8611 13.4726C28.836 13.5998 28.7739 13.7168 28.6825 13.8088L26.9329 15.5584C26.8093 15.6809 26.6424 15.7497 26.4683 15.75ZM25.8121 20.1246C22.6765 20.1246 20.125 22.6761 20.125 25.8116C20.125 28.9472 22.6765 31.5 25.8121 31.5C28.9476 31.5 31.4991 28.9485 31.4991 25.8129C31.4991 22.6774 28.9476 20.1246 25.8121 20.1246ZM28.2625 24.7275L25.4183 27.7896C25.3033 27.915 25.144 27.9906 24.9742 28.0004C24.8043 28.0102 24.6374 27.9534 24.5088 27.8421L22.9771 26.5296C22.9106 26.4738 22.8558 26.4054 22.816 26.3283C22.7761 26.2512 22.7519 26.167 22.7448 26.0805C22.7377 25.994 22.7478 25.907 22.7746 25.8244C22.8014 25.7419 22.8443 25.6655 22.9007 25.5996C22.9572 25.5337 23.0262 25.4797 23.1038 25.4407C23.1813 25.4017 23.2657 25.3784 23.3523 25.3722C23.4389 25.3661 23.5258 25.3772 23.608 25.4048C23.6903 25.4325 23.7662 25.4762 23.8315 25.5334L24.8841 26.4351L27.2991 23.835C27.4175 23.7073 27.5817 23.6318 27.7558 23.6251C27.9298 23.6185 28.0993 23.6812 28.2271 23.7996C28.3548 23.9179 28.4303 24.0822 28.437 24.2562C28.4436 24.4302 28.3809 24.5998 28.2625 24.7275Z" fill="#2B8CD9"/>
</g>
<defs>
<clipPath id="clip0_383_20100">
<rect width="42" height="42" fill="white"/>
</clipPath>
</defs>
</svg>
