<svg width="42" height="42" viewBox="0 0 42 42" fill="none" xmlns="http://www.w3.org/2000/svg">
<g clip-path="url(#clip0_383_20092)">
<path d="M34.125 42H7.875C5.78642 42 3.78338 41.1703 2.30653 39.6935C0.829685 38.2166 0 36.2136 0 34.125L0 7.875C0 5.78642 0.829685 3.78338 2.30653 2.30653C3.78338 0.829685 5.78642 0 7.875 0L34.125 0C36.2136 0 38.2166 0.829685 39.6935 2.30653C41.1703 3.78338 42 5.78642 42 7.875V34.125C42 36.2136 41.1703 38.2166 39.6935 39.6935C38.2166 41.1703 36.2136 42 34.125 42Z" fill="white"/>
<path d="M16.4587 17.7017L11.0079 20.2046C10.7008 20.353 10.5 20.6588 10.5 21C10.5 21.3413 10.7008 21.6471 11.0079 21.7967L16.4587 24.2996L19.7571 21L16.4587 17.7017ZM21.7967 11.008C21.7259 10.8564 21.6133 10.7282 21.4722 10.6384C21.3311 10.5486 21.1673 10.5009 21 10.5009C20.8327 10.5009 20.6689 10.5486 20.5278 10.6384C20.3867 10.7282 20.2741 10.8564 20.2033 11.008L17.7004 16.4588L21 19.7571L24.2983 16.4588L21.7967 11.008ZM21 22.243L17.7017 25.5413L20.2046 30.9921C20.2748 31.1441 20.3871 31.2729 20.5282 31.3632C20.6692 31.4534 20.8332 31.5014 21.0007 31.5014C21.1681 31.5014 21.3321 31.4534 21.4732 31.3632C21.6142 31.2729 21.7265 31.1441 21.7967 30.9921L24.2996 25.5413L21 22.243ZM30.9921 20.2033L25.5412 17.7004L22.2429 21L25.5412 24.2983L30.9921 21.7954C31.2992 21.6471 31.5 21.3413 31.5 21C31.5 20.6588 31.2992 20.353 30.9921 20.2033Z" fill="#2B8CD9"/>
<path d="M14.435 17.9379C14.2855 17.9374 14.1385 17.8986 14.0082 17.8252C13.8779 17.7518 13.7686 17.6462 13.6907 17.5185C13.6128 17.3909 13.5689 17.2454 13.5631 17.0959C13.5574 16.9465 13.5901 16.798 13.658 16.6648C14.3227 15.3753 15.3729 14.3252 16.6624 13.6605C16.8674 13.5663 17.1009 13.5549 17.3142 13.6287C17.5274 13.7025 17.7039 13.8558 17.8069 14.0566C17.9098 14.2574 17.9312 14.4902 17.8667 14.7064C17.8021 14.9227 17.6565 15.1056 17.4604 15.2171C16.4967 15.7142 15.7117 16.4991 15.2147 17.4628C15.1409 17.6059 15.0291 17.726 14.8916 17.8098C14.7541 17.8936 14.5961 17.938 14.435 17.9379ZM24.9377 28.4379C24.7407 28.439 24.5492 28.3736 24.3941 28.2523C24.239 28.131 24.1294 27.9609 24.0831 27.7695C24.0367 27.5781 24.0564 27.3766 24.1388 27.1978C24.2213 27.019 24.3617 26.8732 24.5374 26.7842C25.5011 26.2871 26.286 25.5022 26.783 24.5385C26.8945 24.3423 27.0775 24.1967 27.2937 24.1322C27.5099 24.0676 27.7427 24.089 27.9435 24.192C28.1444 24.2949 28.2977 24.4714 28.3715 24.6847C28.4453 24.8979 28.4339 25.1314 28.3397 25.3365C27.675 26.6259 26.6248 27.6761 25.3354 28.3408C25.2125 28.4045 25.0761 28.4378 24.9377 28.4379ZM17.06 28.4379C16.9217 28.4382 16.7854 28.4053 16.6624 28.3421C15.3729 27.6774 14.3227 26.6272 13.658 25.3378C13.5638 25.1327 13.5525 24.8992 13.6263 24.686C13.7001 24.4727 13.8534 24.2962 14.0542 24.1933C14.255 24.0903 14.4878 24.0689 14.704 24.1335C14.9202 24.198 15.1032 24.3436 15.2147 24.5398C15.7122 25.5032 16.497 26.288 17.4604 26.7855C17.6342 26.8757 17.7727 27.0216 17.8538 27.1998C17.935 27.378 17.954 27.5783 17.9079 27.7686C17.8618 27.9589 17.7532 28.1283 17.5995 28.2496C17.4458 28.3709 17.2559 28.4372 17.06 28.4379ZM27.5627 17.9379C27.4014 17.9381 27.2432 17.8937 27.1057 17.8097C26.9681 17.7256 26.8564 17.6051 26.783 17.4615C26.2855 16.4981 25.5007 15.7133 24.5374 15.2158C24.3412 15.1043 24.1956 14.9214 24.131 14.7051C24.0665 14.4889 24.0879 14.2561 24.1909 14.0553C24.2938 13.8545 24.4703 13.7012 24.6836 13.6274C24.8968 13.5536 25.1303 13.565 25.3354 13.6592C26.6248 14.3239 27.675 15.374 28.3397 16.6635C28.4079 16.7968 28.4408 16.9453 28.4353 17.095C28.4297 17.2446 28.3859 17.3903 28.3079 17.5182C28.23 17.6461 28.1205 17.7518 27.99 17.8253C27.8596 17.8987 27.7124 17.9375 27.5627 17.9379Z" fill="#81C4FA"/>
</g>
<defs>
<clipPath id="clip0_383_20092">
<rect width="42" height="42" fill="white"/>
</clipPath>
</defs>
</svg>
