<svg width="42" height="42" viewBox="0 0 42 42" fill="none" xmlns="http://www.w3.org/2000/svg">
<g clip-path="url(#clip0_383_20112)">
<path d="M34.125 42H7.875C5.78642 42 3.78338 41.1703 2.30653 39.6935C0.829685 38.2166 0 36.2136 0 34.125L0 7.875C0 5.78642 0.829685 3.78338 2.30653 2.30653C3.78338 0.829685 5.78642 0 7.875 0L34.125 0C36.2136 0 38.2166 0.829685 39.6935 2.30653C41.1703 3.78338 42 5.78642 42 7.875V34.125C42 36.2136 41.1703 38.2166 39.6935 39.6935C38.2166 41.1703 36.2136 42 34.125 42Z" fill="white"/>
<path d="M29.9701 24.5004H28.8767V23.8442C28.8767 22.9989 28.1903 22.3125 27.3451 22.3125H25.1571C24.3132 22.3125 23.6267 22.9989 23.6267 23.8442V24.5004H22.5334C22.1029 24.5004 21.7158 24.6802 21.4375 24.9664L26.2517 27.4785L31.0673 24.9664C30.925 24.8191 30.7545 24.702 30.566 24.622C30.3775 24.5419 30.1748 24.5006 29.9701 24.5004ZM24.9392 24.5004V23.8442C24.9392 23.7234 25.0377 23.625 25.1584 23.625H27.3464C27.4658 23.625 27.5642 23.7234 27.5642 23.8442V24.5004H24.9392Z" fill="#81C4FA"/>
<path d="M26.5532 28.8002C26.4597 28.8493 26.3556 28.8749 26.25 28.8749C26.1444 28.8749 26.0403 28.8493 25.9468 28.8002L21 26.2198V29.9683C21 30.8135 21.6864 31.5 22.5317 31.5H29.9696C30.8136 31.5 31.5 30.8135 31.5 29.9683V26.2198L26.5532 28.8002Z" fill="#81C4FA"/>
<path d="M18.375 19.2504C15.9626 19.2504 14.0004 17.2882 14.0004 14.8759C14.0004 12.4635 15.9626 10.5 18.375 10.5C20.7874 10.5 22.7496 12.4622 22.7496 14.8746C22.7496 17.2869 20.7874 19.2504 18.375 19.2504ZM14.6567 21C13.5546 21.001 12.4979 21.4393 11.7186 22.2186C10.9393 22.9979 10.501 24.0546 10.5 25.1567V28.2188C10.5 28.5771 10.7979 28.875 11.1562 28.875H19.2504V26.0308C19.2504 24.3863 20.475 23.0291 22.0592 22.7929C22.2862 22.1274 22.7154 21.5683 23.2667 21.1654C22.3912 20.916 22.344 21 14.6567 21Z" fill="#2B8CD9"/>
</g>
<defs>
<clipPath id="clip0_383_20112">
<rect width="42" height="42" fill="white"/>
</clipPath>
</defs>
</svg>
