<svg width="48" height="48" viewBox="0 0 48 48" fill="none" xmlns="http://www.w3.org/2000/svg">
<rect width="48" height="48" rx="7" fill="white"/>
<mask id="path-2-inside-1_383_19383" fill="white">
<path d="M31.8741 26.1194V31.5006C31.8741 31.7369 31.7778 31.9556 31.6203 32.1219C31.4978 32.2356 28.6803 35.0006 23.9991 35.0006C19.3178 35.0006 16.5003 32.2356 16.3778 32.1219C16.2203 31.9556 16.1241 31.7369 16.1241 31.5006V26.1194L22.8266 29.4706C23.1901 29.6543 23.5918 29.7501 23.9991 29.7501C24.4064 29.7501 24.8081 29.6543 25.1716 29.4706L31.8741 26.1194ZM36.2491 28.2439V21.9789L36.6402 21.7829C36.7861 21.7107 36.909 21.5991 36.9948 21.4608C37.0807 21.3225 37.1262 21.163 37.1262 21.0002C37.1262 20.8374 37.0807 20.6778 36.9948 20.5395C36.909 20.4012 36.7861 20.2897 36.6402 20.2175L24.3902 14.0925C24.2687 14.0317 24.1346 14 23.9987 14C23.8627 14 23.7287 14.0317 23.6071 14.0925L11.3571 20.2175C11.2121 20.2906 11.0902 20.4026 11.0051 20.5409C10.9199 20.6792 10.8749 20.8385 10.875 21.0009C10.8751 21.1633 10.9203 21.3225 11.0056 21.4607C11.0909 21.599 11.2129 21.7108 11.358 21.7838L23.608 27.9088C23.7294 27.9694 23.8633 28.0009 23.9991 28.0009C24.1349 28.0009 24.2688 27.9694 24.3902 27.9088L34.4991 22.8539V28.2439C33.9785 28.5475 33.6241 29.1049 33.6241 29.7506C33.6241 30.7158 34.409 31.5006 35.3741 31.5006C36.3392 31.5006 37.1241 30.7158 37.1241 29.7506C37.1241 29.1058 36.7697 28.5475 36.2491 28.2439Z"/>
</mask>
<path d="M31.8741 26.1194V31.5006C31.8741 31.7369 31.7778 31.9556 31.6203 32.1219C31.4978 32.2356 28.6803 35.0006 23.9991 35.0006C19.3178 35.0006 16.5003 32.2356 16.3778 32.1219C16.2203 31.9556 16.1241 31.7369 16.1241 31.5006V26.1194L22.8266 29.4706C23.1901 29.6543 23.5918 29.7501 23.9991 29.7501C24.4064 29.7501 24.8081 29.6543 25.1716 29.4706L31.8741 26.1194ZM36.2491 28.2439V21.9789L36.6402 21.7829C36.7861 21.7107 36.909 21.5991 36.9948 21.4608C37.0807 21.3225 37.1262 21.163 37.1262 21.0002C37.1262 20.8374 37.0807 20.6778 36.9948 20.5395C36.909 20.4012 36.7861 20.2897 36.6402 20.2175L24.3902 14.0925C24.2687 14.0317 24.1346 14 23.9987 14C23.8627 14 23.7287 14.0317 23.6071 14.0925L11.3571 20.2175C11.2121 20.2906 11.0902 20.4026 11.0051 20.5409C10.9199 20.6792 10.8749 20.8385 10.875 21.0009C10.8751 21.1633 10.9203 21.3225 11.0056 21.4607C11.0909 21.599 11.2129 21.7108 11.358 21.7838L23.608 27.9088C23.7294 27.9694 23.8633 28.0009 23.9991 28.0009C24.1349 28.0009 24.2688 27.9694 24.3902 27.9088L34.4991 22.8539V28.2439C33.9785 28.5475 33.6241 29.1049 33.6241 29.7506C33.6241 30.7158 34.409 31.5006 35.3741 31.5006C36.3392 31.5006 37.1241 30.7158 37.1241 29.7506C37.1241 29.1058 36.7697 28.5475 36.2491 28.2439Z" fill="#FFC36C"/>
<path d="M31.8741 26.1194H47.8741V0.230835L24.7187 11.8085L31.8741 26.1194ZM31.6203 32.1219L42.5076 43.8466L42.8831 43.4978L43.2356 43.1258L31.6203 32.1219ZM16.3778 32.1219L4.7626 43.1258L5.11507 43.4978L5.49063 43.8466L16.3778 32.1219ZM16.1241 26.1194L23.2795 11.8085L0.124097 0.230834V26.1194H16.1241ZM22.8266 29.4706L30.043 15.1905L30.0126 15.1751L29.982 15.1598L22.8266 29.4706ZM25.1716 29.4706L18.0162 15.1598L17.9856 15.1751L17.9552 15.1905L25.1716 29.4706ZM36.2491 28.2439H20.2491V37.4349L28.1886 42.0652L36.2491 28.2439ZM36.2491 21.9789L29.0809 7.67444L20.2491 12.1002V21.9789H36.2491ZM36.6402 21.7829L29.5448 7.4422L29.5084 7.46023L29.472 7.47844L36.6402 21.7829ZM37.1262 21.0002H53.1262H37.1262ZM36.6402 20.2175L29.4848 34.5283L29.5148 34.5433L29.5448 34.5582L36.6402 20.2175ZM24.3902 14.0925L17.2302 28.401L17.2348 28.4033L24.3902 14.0925ZM23.9987 14V30V14ZM23.6071 14.0925L30.7625 28.4033L30.7671 28.401L23.6071 14.0925ZM11.3571 20.2175L4.20168 5.90667L4.17832 5.91835L4.155 5.9301L11.3571 20.2175ZM11.358 21.7838L4.17184 36.0792L4.18719 36.0869L4.20255 36.0946L11.358 21.7838ZM23.608 27.9088L16.4526 42.2196L16.4631 42.2249L23.608 27.9088ZM23.9991 28.0009V12.0009V28.0009ZM24.3902 27.9088L31.5351 42.2249L31.5461 42.2193L24.3902 27.9088ZM34.4991 22.8539H50.4991V-3.03567L27.3432 8.54329L34.4991 22.8539ZM34.4991 28.2439L42.5596 42.0652L50.4991 37.4349V28.2439H34.4991ZM15.8741 26.1194V31.5006H47.8741V26.1194H15.8741ZM15.8741 31.5006C15.8741 27.2917 17.5983 23.6584 20.0051 21.118L43.2356 43.1258C45.9573 40.2528 47.8741 36.182 47.8741 31.5006H15.8741ZM20.7331 20.3972C20.5071 20.6071 20.7564 20.3756 20.8567 20.2871C20.9857 20.1731 21.1079 20.0717 21.2246 19.9811C21.4501 19.806 21.6733 19.6571 21.9097 19.5293C22.3838 19.273 23.113 19.0006 23.9991 19.0006V51.0006C29.5664 51.0006 34.0451 49.3458 37.1288 47.6785C38.67 46.8452 39.9131 45.9838 40.8477 45.2582C41.3189 44.8925 41.7178 44.5564 42.0427 44.2694C42.3388 44.0079 42.703 43.6651 42.5076 43.8466L20.7331 20.3972ZM23.9991 19.0006C24.8852 19.0006 25.6144 19.273 26.0884 19.5293C26.3249 19.6571 26.548 19.806 26.7736 19.9811C26.8903 20.0717 27.0124 20.1731 27.1415 20.2871C27.2418 20.3756 27.4911 20.6071 27.2651 20.3972L5.49063 43.8466C5.29521 43.6651 5.65941 44.0079 5.95548 44.2694C6.28035 44.5564 6.67931 44.8925 7.15047 45.2582C8.08507 45.9838 9.32816 46.8452 10.8694 47.6785C13.9531 49.3458 18.4318 51.0006 23.9991 51.0006V19.0006ZM27.9931 21.118C30.3999 23.6585 32.1241 27.2917 32.1241 31.5006H0.124097C0.124097 36.182 2.04082 40.2528 4.7626 43.1258L27.9931 21.118ZM32.1241 31.5006V26.1194H0.124097V31.5006H32.1241ZM8.96868 40.4302L15.6712 43.7815L29.982 15.1598L23.2795 11.8085L8.96868 40.4302ZM15.6102 43.7508C18.2112 45.0652 21.0848 45.7501 23.9991 45.7501V13.7501C26.0988 13.7501 28.169 14.2435 30.043 15.1905L15.6102 43.7508ZM23.9991 45.7501C26.9134 45.7501 29.787 45.0652 32.388 43.7508L17.9552 15.1905C19.8291 14.2435 21.8994 13.7501 23.9991 13.7501V45.7501ZM32.327 43.7815L39.0295 40.4302L24.7187 11.8085L18.0162 15.1598L32.327 43.7815ZM52.2491 28.2439V21.9789H20.2491V28.2439H52.2491ZM43.4173 36.2833L43.8084 36.0873L29.472 7.47844L29.0809 7.67444L43.4173 36.2833ZM43.7356 36.1236C46.555 34.7286 48.9283 32.5733 50.5876 29.901L23.4021 13.0207C24.8896 10.625 27.0172 8.69278 29.5448 7.4422L43.7356 36.1236ZM50.5876 29.901C52.2469 27.2288 53.1262 24.1458 53.1262 21.0002H21.1262C21.1262 18.1801 21.9145 15.4163 23.4021 13.0207L50.5876 29.901ZM53.1262 21.0002C53.1262 17.8546 52.2469 14.7716 50.5876 12.0994L23.4021 28.9797C21.9145 26.5841 21.1262 23.8202 21.1262 21.0002H53.1262ZM50.5876 12.0994C48.9283 9.42709 46.555 7.27179 43.7356 5.87682L29.5448 34.5582C27.0172 33.3076 24.8896 31.3754 23.4021 28.9797L50.5876 12.0994ZM43.7956 5.90667L31.5456 -0.218333L17.2348 28.4033L29.4848 34.5283L43.7956 5.90667ZM31.5502 -0.216041C29.2058 -1.38921 26.6202 -2 23.9987 -2V30C21.6489 30 19.3315 29.4525 17.2302 28.401L31.5502 -0.216041ZM23.9987 -2C21.3771 -2 18.7915 -1.38921 16.4471 -0.216041L30.7671 28.401C28.6658 29.4525 26.3484 30 23.9987 30V-2ZM16.4517 -0.218333L4.20168 5.90667L18.5125 34.5283L30.7625 28.4033L16.4517 -0.218333ZM4.155 5.9301C1.36318 7.33742 -0.982826 9.49259 -2.62141 12.1552L24.6315 28.9266C23.1632 31.3126 21.0609 33.2438 18.5592 34.5049L4.155 5.9301ZM-2.62141 12.1552C-4.26 14.8179 -5.12674 17.8834 -5.125 21.0098L26.875 20.992C26.8766 23.7936 26.0999 26.5405 24.6315 28.9266L-2.62141 12.1552ZM-5.125 21.0098C-5.12325 24.1363 -4.25307 27.2008 -2.61152 29.8616L24.6227 13.0599C26.0937 15.4442 26.8734 18.1903 26.875 20.992L-5.125 21.0098ZM-2.61152 29.8616C-0.969976 32.5224 1.37842 34.675 4.17184 36.0792L18.5441 7.48832C21.0473 8.74663 23.1517 10.6755 24.6227 13.0599L-2.61152 29.8616ZM4.20255 36.0946L16.4526 42.2196L30.7634 13.5979L18.5134 7.47292L4.20255 36.0946ZM16.4631 42.2249C18.8036 43.3929 21.3834 44.0009 23.9991 44.0009V12.0009C26.3432 12.0009 28.6553 12.5458 30.7528 13.5926L16.4631 42.2249ZM23.9991 44.0009C26.6147 44.0009 29.1946 43.3929 31.5351 42.2249L17.2454 13.5926C19.3429 12.5458 21.655 12.0009 23.9991 12.0009V44.0009ZM31.5461 42.2193L41.655 37.1645L27.3432 8.54329L17.2343 13.5982L31.5461 42.2193ZM18.4991 22.8539V28.2439H50.4991V22.8539H18.4991ZM26.4386 14.4226C21.3412 17.3954 17.6241 23.0312 17.6241 29.7506H49.6241C49.6241 35.1785 46.6158 39.6996 42.5596 42.0652L26.4386 14.4226ZM17.6241 29.7506C17.6241 39.5523 25.5724 47.5006 35.3741 47.5006V15.5006C43.2455 15.5006 49.6241 21.8792 49.6241 29.7506H17.6241ZM35.3741 47.5006C45.1758 47.5006 53.1241 39.5523 53.1241 29.7506H21.1241C21.1241 21.8792 27.5027 15.5006 35.3741 15.5006V47.5006ZM53.1241 29.7506C53.1241 23.0366 49.4111 17.3977 44.3096 14.4226L28.1886 42.0652C24.1283 39.6973 21.1241 35.1749 21.1241 29.7506H53.1241Z" fill="#FFC36C" mask="url(#path-2-inside-1_383_19383)"/>
</svg>
