<svg width="48" height="48" viewBox="0 0 48 48" fill="none" xmlns="http://www.w3.org/2000/svg">
<rect width="48" height="48" rx="5" fill="white"/>
<path d="M33.5105 15.4712L24.26 12.0467C24.0922 11.9838 23.9073 11.9838 23.7395 12.0467L14.4905 15.4712C14.3466 15.5243 14.2225 15.6202 14.1348 15.7459C14.0471 15.8717 14 16.0214 14 16.1747V24.1757C14 33.2777 23.7095 35.9507 23.8085 35.9762C23.9345 36.0087 24.0668 36.0082 24.1925 35.9747C24.29 35.9492 34.001 33.2762 34.001 24.1742V16.1732C34.0007 16.0201 33.9535 15.8708 33.8658 15.7453C33.7781 15.6198 33.6541 15.5242 33.5105 15.4712ZM23.621 23.2502H24.3815C24.9117 23.2512 25.4223 23.4505 25.8129 23.809C26.2036 24.1676 26.4458 24.6593 26.4921 25.1875C26.5384 25.7157 26.3853 26.242 26.063 26.663C25.7407 27.084 25.2725 27.3691 24.7505 27.4622V28.2497C24.7505 28.4486 24.6715 28.6394 24.5308 28.78C24.3902 28.9207 24.1994 28.9997 24.0005 28.9997C23.8016 28.9997 23.6108 28.9207 23.4702 28.78C23.3295 28.6394 23.2505 28.4486 23.2505 28.2497V27.4997H22.25C22.0511 27.4997 21.8603 27.4207 21.7197 27.28C21.579 27.1394 21.5 26.9486 21.5 26.7497C21.5 26.5508 21.579 26.36 21.7197 26.2194C21.8603 26.0787 22.0511 25.9997 22.25 25.9997H24.38C24.5457 25.9997 24.7046 25.9339 24.8218 25.8167C24.9389 25.6996 25.0048 25.5407 25.0048 25.375C25.0048 25.2093 24.9389 25.0504 24.8218 24.9332C24.7046 24.816 24.5457 24.7502 24.38 24.7502H23.6195C23.0893 24.7493 22.5787 24.5499 22.1881 24.1914C21.7974 23.8329 21.5552 23.3411 21.5089 22.813C21.4626 22.2848 21.6157 21.7584 21.938 21.3374C22.2603 20.9164 22.7285 20.6313 23.2505 20.5382V19.7507C23.2505 19.5518 23.3295 19.361 23.4702 19.2204C23.6108 19.0797 23.8016 19.0007 24.0005 19.0007C24.1994 19.0007 24.3902 19.0797 24.5308 19.2204C24.6715 19.361 24.7505 19.5518 24.7505 19.7507V20.5007H25.751C25.9499 20.5007 26.1407 20.5797 26.2813 20.7204C26.422 20.861 26.501 21.0518 26.501 21.2507C26.501 21.4496 26.422 21.6404 26.2813 21.781C26.1407 21.9217 25.9499 22.0007 25.751 22.0007H23.621C23.4568 22.0011 23.2995 22.0665 23.1834 22.1826C23.0673 22.2987 23.0019 22.456 23.0015 22.6202C23.0005 22.7023 23.0158 22.7839 23.0464 22.86C23.0771 22.9362 23.1225 23.0056 23.1801 23.0642C23.2377 23.1227 23.3063 23.1693 23.382 23.2013C23.4576 23.2332 23.5389 23.2498 23.621 23.2502Z" fill="#FFC36C"/>
</svg>
