<svg width="48" height="48" viewBox="0 0 48 48" fill="none" xmlns="http://www.w3.org/2000/svg">
<rect width="48" height="48" rx="5" fill="white"/>
<path d="M19.9408 23.587C19.982 23.7208 20.0694 23.8289 20.1878 23.8958L21.9942 24.8891C22.0714 24.9302 22.1588 24.9508 22.2412 24.9508C22.4213 24.9508 22.5963 24.853 22.6941 24.6832L23.6822 22.8768L24.135 23.1239C24.2122 23.1702 24.2997 23.1908 24.382 23.1908C24.5622 23.1908 24.7371 23.093 24.8349 22.9232L28.2984 16.6035C28.3653 16.4851 28.3807 16.3462 28.3396 16.2124C28.3218 16.1474 28.2906 16.0868 28.2481 16.0345C28.2055 15.9822 28.1526 15.9394 28.0925 15.9088L27.6448 15.6617L28.8799 13.4025C29.0189 13.1555 28.9262 12.8416 28.6792 12.7026L26.8729 11.7145C26.8135 11.6816 26.7482 11.6607 26.6807 11.6533C26.6132 11.6458 26.545 11.6518 26.4798 11.671C26.4147 11.6901 26.354 11.722 26.3013 11.7648C26.2487 11.8077 26.205 11.8605 26.173 11.9204L24.9378 14.1744L24.485 13.9274C24.4258 13.8946 24.3608 13.8738 24.2937 13.8661C24.2265 13.8585 24.1584 13.8641 24.0934 13.8827C24.0284 13.9014 23.9677 13.9326 23.9148 13.9747C23.8619 14.0169 23.8178 14.069 23.7851 14.1281L20.3216 20.4478C20.2547 20.5662 20.2393 20.7051 20.2753 20.8389C20.3165 20.9676 20.404 21.0808 20.5223 21.1477L20.9752 21.3947L19.9871 23.1959C19.9202 23.3194 19.9048 23.4584 19.9408 23.587Z" fill="#2B8CD9"/>
<path d="M31.6168 32.2073H31.1022V30.648C31.1948 30.5759 31.2926 30.509 31.3801 30.4215C31.8638 29.9378 32.1366 29.2945 32.1366 28.6049C32.1366 28.0337 31.941 27.4984 31.6014 27.0507C31.9513 26.2273 32.1417 25.3576 32.1417 24.4518C32.1469 21.8838 30.6648 19.5783 28.4467 18.4667L26.9646 21.1736C28.2048 21.75 29.0591 23.0057 29.054 24.4467C29.054 25.0797 28.879 25.6921 28.5702 26.2273C28.1482 26.4023 27.788 26.6956 27.5204 27.0559L18.2467 27.0404C17.8373 27.0397 17.4443 27.2017 17.1543 27.4908C16.8643 27.7798 16.7009 28.1723 16.7003 28.5817C16.6996 28.9912 16.8616 29.3842 17.1506 29.6742C17.4397 29.9642 17.8321 30.1275 18.2416 30.1282L27.5204 30.1436C27.6645 30.3341 27.8291 30.4987 28.0196 30.6428V32.2022L15.1538 32.1816H15.1435C14.7349 32.1816 14.343 32.3435 14.0536 32.6319C13.7642 32.9204 13.601 33.3117 13.5996 33.7203V35.7788C13.5996 36.067 13.826 36.2986 14.1091 36.2986L32.6358 36.3244H32.6409C32.7747 36.3244 32.9034 36.2729 33.0012 36.1751C33.099 36.0773 33.1556 35.9487 33.1556 35.8097V33.7512C33.1556 33.3426 32.9936 32.9507 32.7052 32.6613C32.4168 32.3719 32.0254 32.2087 31.6168 32.2073Z" fill="#2B8CD9"/>
</svg>
