<svg xmlns="http://www.w3.org/2000/svg" width="55" height="54" viewBox="0 0 55 54" fill="none">
  <g clip-path="url(#clip0_383_15938)">
    <path d="M44.541 54H10.791C8.1057 54 5.53036 52.9333 3.63156 51.0345C1.73275 49.1357 0.666016 46.5603 0.666016 43.875L0.666016 10.125C0.666016 7.43968 1.73275 4.86435 3.63156 2.96554C5.53036 1.06674 8.1057 0 10.791 0L44.541 0C47.2263 0 49.8017 1.06674 51.7005 2.96554C53.5993 4.86435 54.666 7.43968 54.666 10.125V43.875C54.666 46.5603 53.5993 49.1357 51.7005 51.0345C49.8017 52.9333 47.2263 54 44.541 54Z" fill="white"/>
    <path d="M29.5503 14.0553C24.187 14.0553 19.8223 18.418 19.8223 23.7833C19.8223 29.1486 24.187 33.5113 29.5503 33.5113C34.9135 33.5113 39.2782 29.1486 39.2782 23.7833C39.2782 18.418 34.9135 14.0553 29.5503 14.0553ZM23.1052 27.875C26.5529 26.9308 24.6248 23.8 26.6425 23.3977C29.9713 22.6785 30.6321 18.7452 29.2918 16.1522C29.9942 16.1293 30.6216 16.1731 31.47 16.394C31.1949 19.4394 32.9291 22.6473 36.1766 22.2742L37.0187 22.1741C37.0917 22.5097 37.1375 22.8557 37.1625 23.2059C34.5925 23.0725 35.6305 25.2382 33.4752 24.3648C29.2876 22.7744 25.7608 27.5873 28.1975 31.2997C27.1584 31.1109 26.1696 30.7093 25.2932 30.1199C24.4168 29.5305 23.6719 28.7662 23.1052 27.875Z" fill="#48C1C0"/>
    <path d="M39.3729 33.6072C39.5628 33.4106 39.6678 33.1473 39.6654 32.8741C39.6631 32.6008 39.5534 32.3394 39.3602 32.1462C39.167 31.9529 38.9056 31.8433 38.6323 31.841C38.3591 31.8386 38.0958 31.9436 37.8992 32.1335C30.4537 39.5769 17.7387 34.2262 17.7387 23.7812C17.737 21.4028 18.4537 19.0793 19.7949 17.1151C21.1361 15.1509 23.0393 13.6376 25.2551 12.7734C25.5079 12.6699 25.7099 12.4713 25.8177 12.2204C25.9255 11.9694 25.9305 11.6862 25.8317 11.4316C25.7328 11.177 25.5379 10.9714 25.289 10.859C25.04 10.7467 24.7569 10.7365 24.5006 10.8307C21.8924 11.846 19.6521 13.626 18.0734 15.937C16.4947 18.2481 15.6515 20.9824 15.6543 23.7812C15.6515 27.2257 16.93 30.5481 19.2412 33.102C21.5525 35.656 24.7311 37.2588 28.1587 37.5988V40.4566H26.7684C26.3997 40.4566 26.0461 40.603 25.7853 40.8638C25.5246 41.1245 25.3781 41.4781 25.3781 41.8469C25.3781 42.2156 25.5246 42.5692 25.7853 42.83C26.0461 43.0907 26.3997 43.2372 26.7684 43.2372H32.3276C32.6963 43.2372 33.0499 43.0907 33.3107 42.83C33.5714 42.5692 33.7179 42.2156 33.7179 41.8469C33.7179 41.4781 33.5714 41.1245 33.3107 40.8638C33.0499 40.603 32.6963 40.4566 32.3276 40.4566H30.9373V37.5967C34.1269 37.2862 37.1092 35.8757 39.3729 33.6072Z" fill="#7FD6D5"/>
  </g>
  <defs>
    <clipPath id="clip0_383_15938">
      <rect width="54" height="54" fill="white" transform="translate(0.666016)"/>
    </clipPath>
  </defs>
</svg>