<svg xmlns="http://www.w3.org/2000/svg" width="55" height="54" viewBox="0 0 55 54" fill="none">
  <g clip-path="url(#clip0_383_15948)">
    <path d="M44.209 54H10.459C7.77367 54 5.19833 52.9333 3.29953 51.0345C1.40072 49.1357 0.333984 46.5603 0.333984 43.875L0.333984 10.125C0.333984 7.43968 1.40072 4.86435 3.29953 2.96554C5.19833 1.06674 7.77367 0 10.459 0L44.209 0C46.8943 0 49.4696 1.06674 51.3684 2.96554C53.2672 4.86435 54.334 7.43968 54.334 10.125V43.875C54.334 46.5603 53.2672 49.1357 51.3684 51.0345C49.4696 52.9333 46.8943 54 44.209 54Z" fill="white"/>
    <path d="M20.022 33.188C18.1607 33.188 16.647 31.6744 16.647 29.813C16.647 27.9517 18.1607 26.438 20.022 26.438C21.8834 26.438 23.397 27.9517 23.397 29.813C23.397 31.6744 21.8834 33.188 20.022 33.188ZM25.3647 40.5H14.6777C14.454 40.5 14.2393 40.4111 14.0811 40.2529C13.9229 40.0946 13.834 39.88 13.834 39.6562V37.9687C13.834 36.2627 15.2211 34.8755 16.9272 34.8755H23.1152C24.8213 34.8755 26.2084 36.2627 26.2084 37.9687V39.6562C26.2084 39.88 26.1195 40.0946 25.9613 40.2529C25.8031 40.4111 25.5884 40.5 25.3647 40.5Z" fill="#2B8CD9"/>
    <path d="M38.8652 13.5H21.4283C20.3483 13.5 19.459 14.3893 19.459 15.4693V24.7843C20.7923 24.6373 22.1295 25.025 23.1775 25.8623C24.2255 26.6996 24.8987 27.9182 25.0497 29.2511H27.3345V32.9062C27.3345 33.13 27.4234 33.3446 27.5817 33.5029C27.7399 33.6611 27.9545 33.75 28.1783 33.75C28.3159 33.7497 28.4514 33.7156 28.5729 33.6509C28.6944 33.5862 28.7982 33.4928 28.8752 33.3788L31.7102 29.2494H38.8652C39.9452 29.2494 40.8345 28.3601 40.8345 27.2801V15.4676C40.8345 14.3893 39.9452 13.5 38.8652 13.5ZM24.5215 21.3756C24.5214 20.0305 25.0037 18.7299 25.881 17.7102C26.7582 16.6906 27.9721 16.0194 29.3022 15.8186V21.0279L25.6234 24.7067C24.9034 23.7458 24.5165 22.5763 24.5215 21.3756ZM30.1476 27C28.8989 27 27.7395 26.595 26.8182 25.8981L30.745 21.9713C30.9033 21.8134 30.9925 21.5991 30.993 21.3756V15.8169C32.3969 16.0279 33.6689 16.762 34.5539 17.872C35.4389 18.982 35.8713 20.3856 35.7642 21.8011C35.6572 23.2167 35.0187 24.5393 33.977 25.5036C32.9352 26.4679 31.5672 27.0025 30.1476 27Z" fill="#8DC9F8"/>
  </g>
  <defs>
    <clipPath id="clip0_383_15948">
      <rect width="54" height="54" fill="white" transform="translate(0.333984)"/>
    </clipPath>
  </defs>
</svg>