<svg xmlns="http://www.w3.org/2000/svg" width="54" height="54" viewBox="0 0 54 54" fill="none">
  <g clip-path="url(#clip0_383_15928)">
    <path d="M43.875 54H10.125C7.43968 54 4.86435 52.9333 2.96554 51.0345C1.06674 49.1357 0 46.5603 0 43.875L0 10.125C0 7.43968 1.06674 4.86435 2.96554 2.96554C4.86435 1.06674 7.43968 0 10.125 0L43.875 0C46.5603 0 49.1357 1.06674 51.0345 2.96554C52.9333 4.86435 54 7.43968 54 10.125V43.875C54 46.5603 52.9333 49.1357 51.0345 51.0345C49.1357 52.9333 46.5603 54 43.875 54Z" fill="white"/>
    <path d="M34.0324 23.625H25.875V28.1256H34.0324C34.4931 28.1256 34.8761 27.7425 34.8761 27.2818V24.4688C34.8761 24.0081 34.4931 23.625 34.0324 23.625ZM19.125 24.4688V27.2818C19.125 27.7425 19.5081 28.1256 19.9688 28.1256H23.6256V23.625H19.9688C19.5081 23.625 19.125 24.0081 19.125 24.4688ZM34.0324 30.375H25.875V34.8756H34.0324C34.4931 34.8756 34.8761 34.4925 34.8761 34.0318V31.2188C34.8761 30.7581 34.4931 30.375 34.0324 30.375ZM19.125 31.2188V34.0318C19.125 34.4925 19.5081 34.8756 19.9688 34.8756H23.6256V30.375H19.9688C19.5081 30.375 19.125 30.7581 19.125 31.2188Z" fill="#F3D5A1"/>
    <path d="M37.125 14.6255H16.875C15.0137 14.6255 13.5 16.1392 13.5 18.0005V36.0011C13.5 37.8624 15.0137 39.3761 16.875 39.3761H37.125C38.9863 39.3761 40.5 37.8624 40.5 36.0011V18.0005C40.5 16.1392 38.9863 14.6255 37.125 14.6255ZM37.125 37.125H16.875C16.7272 37.125 16.5808 37.0959 16.4443 37.0393C16.3077 36.9827 16.1836 36.8998 16.0791 36.7953C15.9746 36.6908 15.8917 36.5667 15.8351 36.4302C15.7786 36.2936 15.7494 36.1472 15.7494 35.9994V20.25H38.2506V35.9994C38.2506 36.1472 38.2214 36.2936 38.1649 36.4302C38.1083 36.5667 38.0254 36.6908 37.9209 36.7953C37.8164 36.8998 37.6923 36.9827 37.5557 37.0393C37.4192 37.0959 37.2728 37.125 37.125 37.125Z" fill="#FFC36C"/>
  </g>
  <defs>
    <clipPath id="clip0_383_15928">
      <rect width="54" height="54" fill="white"/>
    </clipPath>
  </defs>
</svg>