<svg width="42" height="42" viewBox="0 0 42 42" fill="none" xmlns="http://www.w3.org/2000/svg">
<g clip-path="url(#clip0_383_20130)">
<path d="M34.125 42H7.875C5.78642 42 3.78338 41.1703 2.30653 39.6935C0.829685 38.2166 0 36.2136 0 34.125L0 7.875C0 5.78642 0.829685 3.78338 2.30653 2.30653C3.78338 0.829685 5.78642 0 7.875 0L34.125 0C36.2136 0 38.2166 0.829685 39.6935 2.30653C41.1703 3.78338 42 5.78642 42 7.875V34.125C42 36.2136 41.1703 38.2166 39.6935 39.6935C38.2166 41.1703 36.2136 42 34.125 42Z" fill="white"/>
<path d="M23.6268 16.1871C23.5118 16.1871 23.3979 16.1644 23.2917 16.1204C23.1855 16.0764 23.089 16.012 23.0077 15.9307C22.9264 15.8494 22.8619 15.7529 22.818 15.6466C22.774 15.5404 22.7513 15.4266 22.7513 15.3116V13.9991H19.2509V15.3116C19.2509 15.5438 19.1586 15.7665 18.9945 15.9307C18.8303 16.0948 18.6076 16.1871 18.3754 16.1871C18.1433 16.1871 17.9206 16.0948 17.7564 15.9307C17.5922 15.7665 17.5 15.5438 17.5 15.3116V13.9991C17.5 13.0344 18.2849 12.2496 19.2496 12.2496H22.75C23.7147 12.2496 24.4996 13.0344 24.4996 13.9991V15.3116C24.5001 15.4265 24.4779 15.5404 24.4342 15.6467C24.3906 15.7529 24.3264 15.8495 24.2452 15.9309C24.1641 16.0123 24.0677 16.0768 23.9616 16.1207C23.8554 16.1647 23.7416 16.1872 23.6268 16.1871Z" fill="#81C4FA"/>
<path d="M26.25 21.4371V22.2416C26.25 22.5999 25.9521 22.8979 25.5938 22.8979C25.2354 22.8979 24.9375 22.5999 24.9375 22.2416V21.4371H17.0625V22.2416C17.0625 22.5999 16.7646 22.8979 16.4062 22.8979C16.0479 22.8979 15.75 22.5999 15.75 22.2416V21.4371H10.5V27.3433C10.5 28.6729 11.5763 29.7491 12.9058 29.7491H29.0929C30.4224 29.7491 31.4987 28.6729 31.4987 27.3433V21.4371H26.25ZM29.0942 14.8746H12.9058C11.5763 14.8746 10.5 15.9508 10.5 17.2817V20.1259H15.75V19.0313C15.75 18.6729 16.0479 18.375 16.4062 18.375C16.7646 18.375 17.0625 18.6729 17.0625 19.0313V20.1246H24.9375V19.0313C24.9375 18.6729 25.2354 18.375 25.5938 18.375C25.9521 18.375 26.25 18.6729 26.25 19.0313V20.1246H31.5V17.2804C31.5 15.9508 30.4237 14.8746 29.0942 14.8746Z" fill="#2B8CD9"/>
</g>
<defs>
<clipPath id="clip0_383_20130">
<rect width="42" height="42" fill="white"/>
</clipPath>
</defs>
</svg>
