<svg xmlns="http://www.w3.org/2000/svg" width="48" height="48" viewBox="0 0 48 48" fill="none">
  <rect width="48" height="48" rx="5" fill="#F4F6F8"/>
  <path d="M31.6562 11.75H16.3437C15.532 11.7508 14.7538 12.0735 14.1797 12.6473C13.6056 13.2212 13.2825 13.9993 13.2812 14.811V15.8338H16.3437C16.0729 15.8338 15.8131 15.7262 15.6215 15.5347C15.43 15.3432 15.3224 15.0834 15.3224 14.8125C15.3224 14.5416 15.43 14.2818 15.6215 14.0903C15.8131 13.8988 16.0729 13.7912 16.3437 13.7912H30.6349V15.8323H32.6761V12.7698C32.6763 12.6358 32.65 12.5031 32.5988 12.3793C32.5477 12.2555 32.4725 12.143 32.3778 12.0482C32.2831 11.9535 32.1706 11.8784 32.0467 11.8272C31.9229 11.776 31.7902 11.7498 31.6562 11.75Z" fill="#2B8CD9"/>
  <path d="M33.6974 15.8338H13.2812V33.1874C13.2812 34.8764 14.6548 36.2499 16.3437 36.2499H33.6974C33.9683 36.2499 34.2281 36.1423 34.4196 35.9508C34.6111 35.7593 34.7187 35.4995 34.7187 35.2286V16.8536C34.7187 16.7196 34.6923 16.5868 34.641 16.463C34.5896 16.3392 34.5144 16.2267 34.4195 16.132C34.3246 16.0372 34.212 15.9622 34.0881 15.911C33.9642 15.8598 33.8314 15.8336 33.6974 15.8338ZM27.5724 26.2968C27.5722 26.4509 27.5256 26.6014 27.4386 26.7285C27.3515 26.8557 27.2282 26.9536 27.0846 27.0095C26.941 27.0654 26.7839 27.0767 26.6338 27.0419C26.4837 27.0071 26.3476 26.9278 26.2433 26.8144L24 24.3675L21.7567 26.8144C21.6524 26.9278 21.5163 27.0071 21.3662 27.0419C21.2161 27.0767 21.059 27.0654 20.9154 27.0095C20.7718 26.9536 20.6484 26.8557 20.5614 26.7285C20.4744 26.6014 20.4277 26.4509 20.4276 26.2968V18.8963C20.4276 18.3328 20.8839 17.875 21.4489 17.875H26.5526C27.1161 17.875 27.5739 18.3313 27.5739 18.8963L27.5724 26.2968Z" fill="#2B8CD9"/>
</svg>