<svg xmlns="http://www.w3.org/2000/svg" width="21" height="21" viewBox="0 0 21 21" fill="none">
  <path d="M13.8837 12.2256C12.8171 13.2923 12.8171 14.3589 11.7504 14.3589C10.6837 14.3589 9.61706 13.2923 8.55039 12.2256C7.48372 11.1589 6.41706 10.0923 6.41706 9.02561C6.41706 7.95894 7.48372 7.95894 8.55039 6.89228C9.61706 5.82561 6.41706 2.62561 5.35039 2.62561C4.28372 2.62561 2.15039 5.82561 2.15039 5.82561C2.15039 7.95894 4.34239 12.2843 6.41706 14.3589C8.49172 16.4336 12.8171 18.6256 14.9504 18.6256C14.9504 18.6256 18.1504 16.4923 18.1504 15.4256C18.1504 14.3589 14.9504 11.1589 13.8837 12.2256Z" fill="#2B8CD9"/>
</svg>