<svg width="110" height="110" viewBox="0 0 110 110" fill="none" xmlns="http://www.w3.org/2000/svg">
<circle cx="55" cy="55" r="55" fill="#F8F8F8"/>
<path opacity="0.5" d="M8.20163 40.2444C6.83588 39.8225 6.0645 38.3704 6.555 37.0277C9.65428 28.544 14.9473 21.0316 21.8934 15.2581C22.9927 14.3444 24.6197 14.5821 25.4766 15.7263L42.2919 38.1773C43.1488 39.3214 42.8997 40.9317 41.8911 41.9447C40.4613 43.3805 39.2856 45.0491 38.4147 46.8787C37.8002 48.1693 36.3676 48.9459 35.0019 48.5239L8.20163 40.2444Z" fill="#97CA62" stroke="#F8F8F8" stroke-width="2.15686"/>
<path opacity="0.5" d="M25.9357 15.3866C25.0923 14.2324 25.3409 12.6071 26.5363 11.8231C34.0891 6.86986 42.8213 4.00595 51.8406 3.52401C53.268 3.44773 54.4309 4.61015 54.4349 6.03959L54.5123 34.0895C54.5162 35.5189 53.3546 36.6617 51.9407 36.8717C49.9364 37.1694 47.9968 37.8055 46.2055 38.7527C44.9419 39.4209 43.329 39.188 42.4857 38.0339L25.9357 15.3866Z" fill="#FFC36C" stroke="#F8F8F8" stroke-width="2.15686"/>
<path opacity="0.5" d="M83.6957 93.3854C84.5537 94.5287 84.3257 96.1571 83.1404 96.9561C74.9367 102.486 65.2864 105.527 55.3571 105.68C44.5634 105.847 33.9941 102.592 25.1639 96.3823C16.3338 90.1726 9.69619 81.3269 6.20243 71.1129C2.98845 61.7169 2.58675 51.6067 5.01634 42.0162C5.36737 40.6306 6.8227 39.8653 8.18883 40.286L34.9965 48.5415C36.3626 48.9622 37.1089 50.4107 36.8895 51.8233C36.4467 54.6748 36.6984 57.6047 37.6406 60.3592C38.8634 63.9341 41.1866 67.0301 44.2771 69.2035C47.3677 71.3769 51.0669 72.5161 54.8447 72.4579C57.7556 72.413 60.598 71.6589 63.1317 70.2778C64.3868 69.5936 66.0024 69.8061 66.8604 70.9494L83.6957 93.3854Z" fill="#48C1C0" stroke="#F8F8F8" stroke-width="2.15686"/>
<path opacity="0.5" d="M54.5688 6.03941C54.5688 4.60997 55.7285 3.44434 57.1562 3.51667C67.0369 4.0173 76.581 7.37676 84.615 13.2138C93.3483 19.5589 99.8487 28.5059 103.185 38.7725C106.52 49.0392 106.52 60.0983 103.185 70.365C100.116 79.8094 94.3692 88.1372 86.6698 94.35C85.5574 95.2477 83.934 94.9863 83.0938 93.8299L66.6064 71.137C65.7661 69.9805 66.0386 68.3739 67.0619 67.3758C69.1275 65.3608 70.6847 62.8662 71.5843 60.0975C72.7519 56.5041 72.7519 52.6334 71.5843 49.0401C70.4168 45.4468 68.1416 42.3153 65.085 40.0945C62.7297 38.3834 60.0037 37.2805 57.1481 36.8645C55.7336 36.6584 54.5688 35.5188 54.5688 34.0894V6.03941Z" fill="#2B8CD9" stroke="#F8F8F8" stroke-width="2.15686"/>
</svg>
