<svg width="48" height="48" viewBox="0 0 48 48" fill="none" xmlns="http://www.w3.org/2000/svg">
<g clip-path="url(#clip0_383_10998)">
<path d="M39 48H9C6.61305 48 4.32387 47.0518 2.63604 45.364C0.948211 43.6761 0 41.3869 0 39L0 9C0 6.61305 0.948211 4.32387 2.63604 2.63604C4.32387 0.948211 6.61305 0 9 0L39 0C41.3869 0 43.6761 0.948211 45.364 2.63604C47.0518 4.32387 48 6.61305 48 9V39C48 41.3869 47.0518 43.6761 45.364 45.364C43.6761 47.0518 41.3869 48 39 48Z" fill="#F4F6F8"/>
<path d="M30.2505 12H17.751C17.0218 12.0004 16.3225 12.2902 15.8067 12.8057C15.2909 13.3212 15.0008 14.0203 15 14.7495V33.249C15 34.767 16.233 36 17.7495 36H30.249C30.9782 35.9996 31.6775 35.7098 32.1933 35.1943C32.7091 34.6788 32.9992 33.9797 33 33.2505V14.7495C32.9992 14.0205 32.7093 13.3216 32.1938 12.8062C31.6784 12.2907 30.9795 12.0008 30.2505 12ZM19.0005 16.9995H24.2505C24.5158 16.9995 24.7703 17.1049 24.958 17.2925C25.1456 17.4802 25.251 17.7347 25.251 18C25.251 18.2653 25.1456 18.5198 24.958 18.7075C24.7703 18.8951 24.5158 19.0005 24.2505 19.0005H19.0005C18.7352 19.0005 18.4807 18.8951 18.293 18.7075C18.1054 18.5198 18 18.2653 18 18C18 17.7347 18.1054 17.4802 18.293 17.2925C18.4807 17.1049 18.7352 16.9995 19.0005 16.9995ZM28.9995 31.0005H18.999C18.7337 31.0003 18.4792 30.8947 18.2918 30.7069C18.1043 30.5192 17.9991 30.2646 17.9993 29.9993C17.9994 29.7339 18.105 29.4795 18.2928 29.292C18.4806 29.1045 18.7352 28.9993 19.0005 28.9995H29.001C29.1324 28.9996 29.2625 29.0256 29.3838 29.0759C29.5052 29.1263 29.6154 29.2001 29.7082 29.2931C29.8011 29.386 29.8747 29.4964 29.9249 29.6178C29.9751 29.7392 30.0008 29.8694 30.0007 30.0007C30.0007 30.1321 29.9747 30.2622 29.9243 30.3836C29.8739 30.5049 29.8002 30.6152 29.7072 30.708C29.6142 30.8008 29.5039 30.8744 29.3824 30.9246C29.261 30.9748 29.1309 31.0006 28.9995 31.0005ZM28.9995 27H18.999C18.8676 26.9999 18.7375 26.9739 18.6162 26.9236C18.4948 26.8732 18.3846 26.7994 18.2918 26.7064C18.1989 26.6135 18.1253 26.5031 18.0751 26.3817C18.0249 26.2603 17.9992 26.1301 17.9993 25.9988C17.9993 25.8674 18.0253 25.7373 18.0757 25.6159C18.1261 25.4946 18.1998 25.3843 18.2928 25.2915C18.3858 25.1987 18.4961 25.1251 18.6176 25.0749C18.739 25.0247 18.8691 24.9989 19.0005 24.999H29.001C29.2663 24.9992 29.5208 25.1048 29.7082 25.2926C29.8957 25.4803 30.0009 25.7349 30.0007 26.0002C30.0006 26.2656 29.895 26.52 29.7072 26.7075C29.5194 26.895 29.2648 27.0002 28.9995 27ZM28.9995 22.9995H18.999C18.8644 23.0046 18.7303 22.9825 18.6044 22.9345C18.4786 22.8865 18.3638 22.8136 18.2669 22.7202C18.1699 22.6268 18.0928 22.5148 18.0401 22.3908C17.9875 22.2669 17.9604 22.1336 17.9605 21.999C17.9606 21.8643 17.9879 21.7311 18.0407 21.6072C18.0935 21.4834 18.1708 21.3715 18.2679 21.2782C18.365 21.1849 18.48 21.1122 18.6058 21.0644C18.7317 21.0166 18.866 20.9947 19.0005 21H29.001C29.2661 21.0002 29.5204 21.1057 29.7077 21.2934C29.8951 21.481 30.0002 21.7353 30 22.0005C29.9998 22.2656 29.8943 22.5199 29.7067 22.7072C29.519 22.8946 29.2647 22.9997 28.9995 22.9995Z" fill="#2B8CD9"/>
</g>
<defs>
<clipPath id="clip0_383_10998">
<rect width="48" height="48" fill="white"/>
</clipPath>
</defs>
</svg>
