<svg width="21" height="21" viewBox="0 0 21 21" fill="none" xmlns="http://www.w3.org/2000/svg">
<path d="M18.1504 7.99861V15.1256C18.1504 15.7887 17.887 16.4245 17.4182 16.8934C16.9493 17.3622 16.3134 17.6256 15.6504 17.6256H4.65039C3.98735 17.6256 3.35146 17.3622 2.88262 16.8934C2.41378 16.4245 2.15039 15.7887 2.15039 15.1256V7.99861L9.89639 12.5566C9.97334 12.602 10.0611 12.6259 10.1504 12.6259C10.2397 12.6259 10.3274 12.602 10.4044 12.5566L18.1504 7.99861ZM15.6504 4.62561C16.2655 4.62551 16.8591 4.85222 17.3176 5.26235C17.7761 5.67248 18.0672 6.23725 18.1354 6.84861L10.1504 11.5456L2.16539 6.84861C2.23355 6.23725 2.52471 5.67248 2.98319 5.26235C3.44166 4.85222 4.03524 4.62551 4.65039 4.62561H15.6504Z" fill="#2B8CD9"/>
</svg>
