<svg width="21" height="21" viewBox="0 0 21 21" fill="none" xmlns="http://www.w3.org/2000/svg">
<g clip-path="url(#clip0_614_1005)">
<path d="M10.1504 0.62561C5.98669 0.62561 2.61133 4.00096 2.61133 8.16468C2.61133 9.55713 2.88388 10.9953 3.66601 12.0319L10.1504 20.6256L16.6348 12.0319C17.3452 11.0904 17.6894 9.42593 17.6894 8.16468C17.6895 4.00096 14.3141 0.62561 10.1504 0.62561ZM10.1504 4.99206C11.9023 4.99206 13.323 6.41274 13.323 8.16466C13.323 9.91661 11.9023 11.3373 10.1504 11.3373C8.39846 11.3373 6.9778 9.91661 6.9778 8.16468C6.9778 6.41274 8.39846 4.99206 10.1504 4.99206Z" fill="#2B8CD9"/>
</g>
<defs>
<clipPath id="clip0_614_1005">
<rect width="20" height="20" fill="white" transform="translate(0.150391 0.62561)"/>
</clipPath>
</defs>
</svg>
