<svg width="54" height="54" viewBox="0 0 54 54" fill="none" xmlns="http://www.w3.org/2000/svg">
<g clip-path="url(#clip0_36_28646)">
<path d="M43.875 54H10.125C4.53273 54 0 49.4673 0 43.875V10.125C0 4.53273 4.53273 0 10.125 0H43.875C49.4673 0 54 4.53273 54 10.125V43.875C54 49.4673 49.4673 54 43.875 54Z" fill="#F4F6F8"/>
<path d="M27 13.5C19.5566 13.5 13.5 19.5566 13.5 27C13.5 34.4434 19.5566 40.5 27 40.5C34.4434 40.5 40.5 34.4434 40.5 27C40.5 19.5566 34.4434 13.5 27 13.5ZM27 19.1244C27.6209 19.1244 28.1256 19.6275 28.1256 20.25C28.1256 20.8725 27.6209 21.3756 27 21.3756C26.3791 21.3756 25.8744 20.8725 25.8744 20.25C25.8744 19.6275 26.3791 19.1244 27 19.1244ZM29.5312 34.8756H24.4688C23.8479 34.8756 23.3432 34.3709 23.3432 33.75C23.3432 33.1291 23.8463 32.6244 24.4688 32.6244H25.8744V25.8744H25.0307C24.4098 25.8744 23.9051 25.3698 23.9051 24.7489C23.9051 24.128 24.4098 23.625 25.0307 23.625H27C27.6209 23.625 28.1256 24.1297 28.1256 24.7506V32.6261H29.5312C30.1521 32.6261 30.6568 33.1308 30.6568 33.7517C30.6568 34.3708 30.1521 34.8756 29.5312 34.8756Z" fill="#2B8CD9"/>
</g>
<defs>
<clipPath id="clip0_36_28646">
<rect width="54" height="54" fill="white"/>
</clipPath>
</defs>
</svg>
